<svg width="27" height="27" viewBox="0 0 27 27" fill="none" xmlns="http://www.w3.org/2000/svg">
<path d="M13.3355 0C20.7003 0.000220518 26.671 5.97063 26.671 13.3355C26.671 20.7003 20.7003 26.6707 13.3355 26.671C5.9705 26.671 0 20.7005 0 13.3355C0 5.9705 5.9705 0 13.3355 0ZM7.15217 6.86099C6.18746 6.86099 5.40379 7.64466 5.40379 8.60937V18.0622C5.40396 19.0203 6.18757 19.81 7.15217 19.81H19.5181C20.4763 19.81 21.2663 19.0268 21.2665 18.0622V8.60937C21.2665 7.65114 20.4828 6.86099 19.5181 6.86099H7.15217ZM20.075 17.7449C20.0749 18.347 19.5829 18.8392 18.9808 18.8392H7.68948C7.08744 18.8392 6.59542 18.347 6.59527 17.7449V10.2082L13.3348 14.4232L20.075 10.2082V17.7449ZM18.9808 7.83246C19.583 7.83246 20.075 8.32453 20.075 8.92666V9.06246L13.3348 13.2774L6.59527 9.06246V8.92666C6.59527 8.32453 7.08735 7.83246 7.68948 7.83246H18.9808Z" fill="white"/>
</svg>
