<svg width="27" height="27" viewBox="0 0 27 27" fill="none" xmlns="http://www.w3.org/2000/svg">
<path d="M13.3355 0C20.7004 4.41044e-05 26.671 5.97052 26.671 13.3355C26.671 20.7004 20.7004 26.6709 13.3355 26.671C5.9705 26.671 0 20.7005 0 13.3355C0 5.9705 5.9705 0 13.3355 0ZM15.8471 4.76006C12.3278 4.76015 10.7057 6.4276 10.7057 10.0254V11.4174H8.53364V14.6477H10.7057V21.9109H14.5263V14.6477H17.3754L17.9663 11.4174H14.5263V10.2748C14.5263 8.56788 15.1935 7.91145 16.9204 7.91145C17.4566 7.91145 17.8888 7.92441 18.1373 7.95062V5.02251C17.6663 4.89144 16.5144 4.76007 15.8471 4.76006Z" fill="white"/>
</svg>
