<svg width="27" height="27" viewBox="0 0 27 27" fill="none" xmlns="http://www.w3.org/2000/svg">
<path d="M13.3359 0C20.7007 0.000220513 26.6718 5.97117 26.6719 13.3359C26.6718 20.7007 20.7007 26.6707 13.3359 26.6709C5.97112 26.6708 0.000116187 20.7008 0 13.3359C8.82053e-05 5.9711 5.9711 0.000105364 13.3359 0ZM13.3203 5.21094C11.1137 5.21516 10.8373 5.22533 9.9707 5.26758C9.10641 5.30836 8.51602 5.44571 8 5.64844C7.46596 5.85656 7.01287 6.13597 6.5625 6.58789C6.11208 7.03993 5.83463 7.49343 5.62793 8.02832C5.42789 8.54557 5.29209 9.13694 5.25391 10.002C5.21573 10.8667 5.20769 11.1454 5.21191 13.3516C5.21614 15.5577 5.22565 15.8344 5.26758 16.7012C5.30886 17.5654 5.44662 18.1556 5.64941 18.6719C5.8579 19.206 6.13665 19.6588 6.58887 20.1094C7.04109 20.56 7.49404 20.8369 8.03027 21.0439C8.54699 21.2436 9.1382 21.3791 10.0029 21.417C10.8676 21.4548 11.1461 21.4642 13.3516 21.46C15.5574 21.4557 15.8355 21.4454 16.7021 21.4043C17.5685 21.3632 18.1556 21.2252 18.6719 21.0234C19.206 20.8145 19.6591 20.5354 20.1094 20.083C20.5596 19.6307 20.8374 19.1778 21.0439 18.6426C21.2442 18.1258 21.3795 17.5341 21.417 16.6699C21.4548 15.803 21.4642 15.5258 21.46 13.3203C21.4557 11.1142 21.4454 10.8372 21.4043 9.9707C21.3632 9.10425 21.2261 8.51562 21.0234 7.99902C20.8146 7.46493 20.536 7.01243 20.084 6.56152C19.6319 6.11061 19.1777 5.83398 18.6426 5.62793C18.1255 5.42792 17.5347 5.29128 16.6699 5.25391C15.8053 5.21654 15.5267 5.20671 13.3203 5.21094ZM13.3232 6.67676C15.4917 6.67205 15.7493 6.68008 16.6064 6.71777C17.3979 6.75223 17.8291 6.88348 18.1152 6.99414C18.4949 7.14037 18.7653 7.3166 19.0508 7.60059C19.3361 7.88451 19.512 8.1544 19.6602 8.53418C19.7721 8.81967 19.905 9.24907 19.9424 10.041C19.9832 10.8979 19.9922 11.1554 19.9961 13.3242C20 15.4927 19.9926 15.7503 19.9551 16.6064C19.9205 17.3986 19.7891 17.8292 19.6787 18.1162C19.5325 18.4955 19.3559 18.7665 19.0723 19.0518C18.7887 19.3369 18.5187 19.513 18.1396 19.6611C17.8536 19.7728 17.4231 19.9057 16.6318 19.9434C15.775 19.9837 15.5182 19.9924 13.3486 19.9971C11.1789 20.0018 10.9223 19.9931 10.0654 19.9561C9.27344 19.9216 8.84327 19.7898 8.55664 19.6797C8.17703 19.5334 7.90678 19.3562 7.62109 19.0732C7.3355 18.7904 7.15989 18.5192 7.01172 18.1406C6.90041 17.854 6.76655 17.424 6.72949 16.6318C6.68919 15.7757 6.68049 15.5185 6.67578 13.3496C6.67107 11.1803 6.67926 10.923 6.7168 10.0664C6.75061 9.27497 6.88316 8.84409 6.99316 8.55762C7.13939 8.1777 7.31516 7.9075 7.59863 7.62207C7.8822 7.33655 8.15311 7.1609 8.53223 7.0127C8.81854 6.9009 9.24824 6.76818 10.04 6.73047C10.8969 6.68984 11.1543 6.68147 13.3232 6.67676ZM13.3281 9.16309C11.024 9.16764 9.15967 11.0398 9.16406 13.3438C9.16866 15.648 11.04 17.5122 13.3438 17.5078C15.6476 17.5034 17.5122 15.6314 17.5078 13.3271C17.5033 11.0231 15.632 9.15872 13.3281 9.16309ZM12.2949 10.835C12.7893 10.6291 13.3339 10.5743 13.8594 10.6777C14.3847 10.7812 14.8677 11.0382 15.2471 11.416C15.6266 11.794 15.8857 12.2766 15.9912 12.8018C16.0968 13.3269 16.0439 13.8719 15.8398 14.3672C15.6358 14.8623 15.2894 15.2856 14.8447 15.584C14.3999 15.8824 13.8765 16.0429 13.3408 16.0439C12.9854 16.0446 12.6334 15.9751 12.3047 15.8398C11.976 15.7045 11.6767 15.5057 11.4248 15.2549C11.1728 15.0039 10.9727 14.7052 10.8359 14.377C10.6992 14.0486 10.6286 13.6965 10.6279 13.3408C10.6269 12.8051 10.7843 12.281 11.0811 11.835C11.3778 11.389 11.8005 11.0409 12.2949 10.835ZM17.6631 8.0166C17.4046 8.01712 17.1561 8.11965 16.9736 8.30273C16.7912 8.48588 16.689 8.73463 16.6895 8.99316C16.6898 9.18583 16.7472 9.37413 16.8545 9.53418C16.9619 9.69432 17.1147 9.81908 17.293 9.89258C17.4713 9.96606 17.6674 9.98522 17.8564 9.94727C18.0455 9.9093 18.2193 9.81631 18.3555 9.67969C18.4916 9.54307 18.5838 9.3689 18.6211 9.17969C18.6584 8.99048 18.6386 8.79424 18.5645 8.61621C18.4904 8.43843 18.3654 8.28645 18.2051 8.17969C18.0447 8.07295 17.8558 8.01631 17.6631 8.0166Z" fill="white"/>
</svg>
