<?xml version="1.0" encoding="UTF-8"?>
<svg id="Layer_1" xmlns="http://www.w3.org/2000/svg" version="1.1" viewBox="0 0 738 910.83">
  <!-- Generator: Adobe Illustrator 30.0.0, SVG Export Plug-In . SVG Version: 2.1.1 Build 123)  -->
  <path d="M735.43,57.62c-5.42-1.88-3.1,2.13-5.08-6.6-3.14-2.34-19.66,5.78-22.47,8.78-1.63,1.74-3.7,8.21-5.3,8.29-1.89.09-1-2.54-.69-3.61,2.09-7.01,16.68-11.01,17.56-15.55,1.68-8.69-8.18-3.15-11.84-1.05-4.47,2.57-9.1,9.48-13,3.82-1.52-.41-7.73,5.6-9.04,7.21-7.58,9.35-5.52,13.7-8.05,24.03-2.12,8.7-4.86,17.31-7.06,25.99-1.4,2.71-7.36,2.36-10.12,3.49-3.27,1.34-5.4,5-8.82,6.73-26.27,13.31-63.32,13.38-89.17,27.52-14.31,7.83-20.35,11.82-37.46,15.05-17.35,3.28-28.96-1.93-45.04-.3-4.94.5-32.96,11.6-34.71,9.79.08-4.38,1.72-8.73,1.98-13.08.34-5.8-2.06-18.43-1.03-22.19.33-1.18,3.06-1.1,3.73-3.29.31-.99.64-11.76,2.56-13.25,1.92-1.49,2.52-23.12.52-24.67-2-1.55-2.57,1.35-4.84,2.63-.4-14.62.41-25.77-4.3-39.73-4.83-14.32-16-37.37-29.6-43.88-9.16-9.21-1.72-15.12-33.65-13.46-27.93,2.99-24.94,13.97-25.69,18.26-16.01,7.96-25.49,28.28-28.67,46.04-5.82,32.55,4.45,54.37,16.34,82.25,6.84,16.03,11.09,29.26,24.39,41.46-5.65,4.7-13.06,12.2-20.3,13.09-18.58,2.29-37.78,1.6-55.98,8.21-6,2.18-11.81,6.29-17.65,8.6-13.18,5.2-62.12,13.42-77.14,14.27-14.57.83-31.38-1.67-46.6-.88-27.5,1.43-52.03,9-80.73,6.88-15.48-1.14-10.76-7.79-16.45-19.52-3.15-6.49-7.41-11.07-11.05-18.11-7.09-13.73-17.52-3.38-12.83,8.43-6.83-5.64-8.48-2.36-12.17,3.89-8.07-2.97-.45-7.11-3.51-12.99-6.69-12.84-14.15,10.53-12.13,17.87,1.15,4.19,8.24,6.5,9.78,9.75,1.85,3.9,1.74,10.62,2.93,14.56,2.56,8.48,9.55,11.58,15.13,16.95.95.92,1.04,3.09,2.36,4.44,4.98,5.08,11.81,3.05,17.49,3.9,3.88.58,8.67,3.09,13.69,3.81,10.19,1.47,21.7.92,32.08,1.96,28.36,2.84,61.77,8.57,90.01,3.43,11.41-2.08,12.25-3.56,24.73-3.4,21.99.28,46.28.68,68.01-2.1,16.7-2.14,46.49-14.56,56.54,4.97,7.39,14.36,17.69,47.15,22.43,62.88.55,1.82,3.6,11.38,3.6,12.01,3.7,15.3-15.63,37.28-21.83,45.21-6.19,7.93-195.13,45.01-198.53,65.45-2,11.97,53.06,39.73,65.18,44.56s51.88,38.69,94,51.1c11.97,8.42,38.13,25.72,38.13,25.72,0,0-13.08,34.92-14.41,56.2-1.33,21.28-13.97,59.86-23.28,65.18-9.31,5.32-25.27,9.98-43.23,13.97s-52.54,35.25-69.83,49.88c-17.29,14.63-39.91,23.94-47.89,24.61s-21.37-13.4-21.37-13.4c-.79-.22-11.58-3.3-15.19,1-4.57,5.44-11.16,22.18-12.57,29.29-8.32,24.71-32.07,17.4-40.96,20.28-35.07,11.11-26.09,24.62-18.98,26.68,8.58,2.49,37.24,10.64,82.21,5.39,10.14-1.18,20.28-5.25,29.56-9.34,8.45-3.73,19.94-10.14,27.81-15.95,15.39-11.36,76.16-35.82,96.51-45.45,15.69-7.43,29.14-16.14,45.98-22.09,14.7-5.2,36.4-8.26,48.48-17.64,11.7-9.08,18.52-30.09,25.77-43.25,6.38-11.56,11.02-21.2,17.46-32.68,1.53-2.73,8.29-15.16,8.87-17.74,5.25,6.48,9.75,10.8,12.58,18.68.53,1.48.5,47.71,25.77,88.95,6,9.79,37.45,63.77,44.88,70.38,2.75,2.45,3.67,6.1,5,14.75,1.33,8.65-5.32,11.31-9.98,19.95-4.66,8.65-27.93,15.3-31.92,24.61-3.99,9.31,20.62,14.63,41.9,15.3,21.28.67,21.95-4.66,31.92-11.31s14.63-3.99,14.63-25.27c0-9.33.67-21.95,0-27.93-.67-5.99-6.14-12.72-6.14-12.72-17.57-32.8-20.93-63.3-28.12-99.21-4.54-22.7-16.39-33.32-23.5-50.38-5.2-12.49-2-22.68-4.92-33.96-3.46-13.37-9.82-30.51-23.79-46.48,21.17,6.4,53.62,11.12,71.16,11.49,37.47.79,47.89,9.8,59.86,0,11.97-9.8-60.52-109.92-117.05-158.85-3.08-2.66.8-10.06,3.12-15.02,8.09-17.27,21.44-34.11,28.97-52.68,15.51-38.24,7.19-102.38-2.56-142.03-2.21-8.99-9.88-19.53-5.98-29.89,10.32-2.78,20.83-3.82,31.09-7.05,18.33-5.77,36.55-13.8,54.77-20.11,32.2-11.16,53.33-31.34,81.75-47.57,26.79-15.3,46.8-15.38,66.82-44.02,1.79-2.56,7.73-12.91,4.2-15.15-8.73-6.17-17.43,15.97-22.98,14.54-5.57-1.43-3.18-15.66-1.57-19.72.92-2.3,4.25-6,6.37-7.24,4.71-2.76,17.83-4.37,19.87-7.37,1.55-2.29.85-4.3-1.75-5.2Z"/>
</svg>