<?xml version="1.0" encoding="UTF-8"?>
<svg id="Layer_1" data-name="Layer 1" xmlns="http://www.w3.org/2000/svg" viewBox="0 0 861.77 1031.3">
  <path d="M802.82,541.57c-10.66-1.17-14.85-2.38-26.19-2.47-11.9-.1-10.71-4.69-19.39-9.54-17.63-9.83-44.21-18.51-63.58-26.91-6.31-2.74-13.48-7.64-19.88-10.29-9.44-3.91-19.9-5.43-28.64-9.75-10.97-5.41-19.77-15.7-31.9-21.57-17.29-8.37-38.48-14.07-56.66-21.49-5.16-2.1-30.08-14.81-32.88-13.68-7.82,3.13-5.92,8.56-8.22,13.81-9.24,21.13-4.7,39.22-11.76,60.91-4.04,12.4-12.4,20.4-9.93,34.67.68,3.93,7.91,19.78,7.86,20.9-.23,5.76-8.26-3.25-9.56-2.06-.8,6.33-2.54,12.5-3.91,18.72-1.87,8.47-5.35,23.97-4.44,32.73.46,4.44,3.58,4.96,4.21,8.2,3.95,20.34-7.96,40.21-6.21,57.01.27,2.6,3.02,5.58,3.19,7.65.22,2.65-2.92,4.82-2.17,10.36,3.22,23.88,22.52,60.02,29.21,86.05,8.87,34.51,20.08,115.7,9.97,148.46-3.96,12.81-12.92,23.35-26.02,27.45-52.55,16.45-110.08-3.85-162.18-4.62-6.16-.09-11.42,2.07-17.85,1.47-5.29-.49-10.14-3.94-15.12-4.19-3.03-.15-23.1,1.52-25.44,2.26-4.52,1.44-16.65,13.46-17.32,17.88-.41,2.7,2.87,6.77-.35,9.44-3.63,2.96-8.38,1.18-12.32,2.75-14.75,5.88-13.95,19.8-18.15,31.21-1.07,2.91-10.1,21.51-11.47,22.8-2.53,2.38-11.7,4.26-15.09,4.09-3.81-.19-6.88-6.41-8.09-9.51-3.11-7.92-7.11-34.83-6.2-43.17,1.95-18.06,14.76-21.84,20.84-35.37,1.73-3.86,5.97-18.56,6.35-22.58.15-1.55.53-2.75-1.11-3.73l-9.6-2.09c1.85-6.6.06-29.26,4.64-33.02,4.49-2.55,10.09-.6,15.11-1.34,11.41-1.68,20.03-6.35,32.4-2.01,2.62.92,4,3.51,6.47,4.5,16.36,6.56,47.28.87,65.33-1.11,20.69-2.27,36.8-6.55,56.67-10.51,14.02-2.8,28.71-4.32,42.83-1.73,4.2-4.23-25.18-48.32-29.02-55.29-15.81-28.71-25.11-56.82-51.85-78.4-27.92-22.54-70.54-4.06-101.16,3.07-11.13,2.59-24.03,2.86-34.87,6.26-12.19,3.82-21.51,13.71-33.65,17.75-2.26,2.41-5.24,43.99-6.15,49.39-1.37,8.14-9.17,17.29-11.63,25.39-2.58,8.52-.53,15.2-2.06,22.62-2.51,12.18-13.44,31.75-12.09,44.21.59,5.45,3.53,6.16,2.22,13.06-2.48,13-11.13,19.2-19.2,27.45-2.28,2.33-2.35,5.97-6.32,8.76-5.52,3.88-17.61,4.79-23.57,2.09-3.74-1.69-1.58-11.08-8.56-11.06-10.17.03-29.06,15.08-40.39,17.33-22.66,4.5-64.28-24.09-41.26-44,2.78-2.41,16.09-9.46,19.61-10.55,21.86-6.82,50.74.68,66.8-18.2,1.29-1.52,4.03-2.18,4.8-3.43,1.46-2.37,1.19-49.12.74-55.57-2.08-29.67-11.26-56.44-2.4-87.31,11.56-40.27,21.39-46.84,51.58-71.81,2.41-1.99,3.33-5.81,5.7-8.01,6.27-5.78,26.08-18.09,34.3-23.29,21.53-13.62,46.13-23.52,65.08-40.6.92-1.86-7.52-18.73-8.61-22.95-7.02-27.22-.37-48.73,16.88-70.12,5.9-7.32,21.55-18.55,25.05-24.31,4.57-7.51,15.95-46.37,15.15-54.49-.36-3.64-2.24-7.23-2.6-11.14-2.09-22.77,10.57-41.46-.76-65.05-2.07-4.32-20.9-21.55-25.3-26.8-31-36.93-50.3-83.45-84.36-117.18-24.27-24.04-53.44-52.7-73.91-79.65-3.73-4.91-6.79-12.52-10.37-17.05-2.68-3.38-10.16-6.62-10.69-9.88-4.1-25.23-1.4-32.89-.21-42.11,1.43-11.09,11.48-21.63,13.34-27.84,1.52-5.1,1.44-16.26,6.12-20.61,1.42-1.32,4.96-1.33,7.23-3.06,2.24-1.71,11.45-12.31,12.32-12.33,4.69,2.84.42,7.76.63,10.14.1,1.17,2.79,1.12,3.46,2.13,4.05,6.03-5.96,19.08-4.77,20.61l8.71-2.85c1.23.27,2.07,3.59,1.9,4.7-.88,5.79-18.87,24.32-22.69,30.64l-.27,4.52c3.96,2.15,16.43-5.63,17.82-.65,2.08,7.43-16.6,9.47-13.07,17.08,15.54,12.99,29.3,28.77,44.59,41.86,20.42,17.48,42.36,29.71,58.74,52.31,5.13,7.09,9.8,18.77,15.32,24.44,6.26,6.44,18.71,13,26.11,20.51,16.37,16.61,26.99,39.59,46.68,53.41,9.8,6.88,21.65,11.9,31.86,18.87,3.8,2.6,6.3,6.74,10.04,9.16,6.45,4.18,13.48,5,21.04,4.31,1.78-1.71-7.2-17.17-8.14-19.96-1.75-5.21-3.38-27.02-2.51-32.51,1.59-10.04.84-11.19.97-20.93.21-15.43,8.2-39.71,21.37-48.59,23.63-15.93,56.04-17.53,76.78,4.04,15.32,15.94,13.25,30.9,13.05,51.5-.03,3.25-1.83,6.53-1.45,9.44.35,2.69,3.24,4.52,3.87,7.25.81,3.47-4.8,28.65-6.88,31.63-.67.96-4.24.9-6.87,4.79-7.1,10.5,3.02,9,8.45,12.72,7.28,4.99,7.3,10.34,19.69,15.95,12.12,5.49,14.72,3.53,26.23,5.3,8.32,1.28,6.57,6.29,9.31,11.26,3.65,6.63,14.89,11.19,20.91,16.11,30.35,24.81,48.76,45.82,86.6,62.84,27.46,12.35,40.65,11.53,67.56,31.16,23.91,17.44,47.32,36.61,72.32,52.45,14.42,9.14,29.62,4.24,45.7,7.08,45.5,17.52,40.03,42.14,28.18,32.11s-43.16.08-50.63-.74Z"/>
</svg>