<?xml version="1.0" encoding="UTF-8"?>
<svg id="Layer_1" data-name="Layer 1" xmlns="http://www.w3.org/2000/svg" viewBox="0 0 559.99 1031.3">
  <path d="M327.22,94.8c-10.56,9.41-24.18,2.57-36.35,1.7.62,5.46,3.29,32.67-8.07,24.06-2.03.45-2.52,13.44-3.26,16.27-1.11,4.13-11.43,21.47.53,15.52,1.64.35,5.63,17.33,5.63,19.91,0,19.51-4.39,6.14,16.46,19.87,5.41,3.56,6.43,4.73,11.64-.22,27.28-12.16,63.29-9.08,92.37-10.27,17.21-1.61,34.76-7.5,51.65-11.05-7.95-19.35-20.89-36.46-36.67-50.1-2.47-1.02-12.44,6.44-15.75,7.73-6.83,2.66-15.53,3.83-23.04,6.84-2.77,1.11-9.78,7.04-10.92.74-2.28-12.55,23.56-15.04,22.75-22.69-11.1-18.33-38.53-13.92-56.88-21.77-6.18-2.31-6.72-7.5.07-9.07,11.84,2.38,23.87,4.49,36,4.5,1.36-3.71-12.2-6.35-15.38-8.33-6.63-3.01-18.87-8.09-24.46-11.92-4.61-3.15-4.26-8.73,1.67-8.87,13.19,3.32,26.82,12.22,40.12,13.53.64-3.7-20.9-15.2-29.56-22.73-3.76-3.27-1.83-7.86,2.51-7.62,2.76.15,18.24,9.76,21.8,11.89,3.04,1.81,13.62,10,16.48,9.28,1.41-.35,3.1-3.08,2.94-4.63-.13-1.32-4.82-11.06-5.81-13.08-1.23-2.49-10.06-13.86-3.45-14.73,9.93,1.71,14.37,21.38,20.73,27.33,11.03,9.14,28.61,15.67,35.38,30.24,25.54,21.24,53.99,48.71,74.71,74.73,23.45,23.86-13.01,40.51-32.48,48.05-18.55,7.74-37.5,14.97-57.13,19.53-23.88,5.54-56.53,4.96-71.99,26.11-3.12,4.26-14.49,25.47-14.43,29.74.03,2.25,1.17,5.46,1.31,7.84.87,12.11-13.28,29.55-5.36,41.76.67,1.77,3.44,8.02,2.13,8.93l-3.77,1.12c-2.06,1.84,2.75,8.02,4.08,9.61,22.34,18.86,16.92,18.75,10.07,44.19-1.54,1.3-8.22-7.36-10.72-7.64-5.92,4.19-4.56,11.67-10.75,15.72-6.38,5.23-17.45,2.61-21.89,7.99-4.94,9.49-7.02,23.08-10.68,32.85-2.17,5.14-7.02,10.74-7.63,17.11,3.3,15.77,1.61,31.93,1.61,47.68,3,2.38,4.07,4.65,1.52,8.04-.9,1.2-3.19,1.8-3.05,3.22,2.47,8.64,12.23,2.3,6.52,13.92,12.64,31.04,27.96,63.97,38.87,96.01,9.77,27.48,14.04,50.43,30.63,75.29,16.93,25.37,38.54,43.08,53.02,70.43,15.3,32.16,28.46,66.06,46.1,96.86,1.13,3.95,10.29,25.4,14.4,29.79,1.16,1.18,3.7,1.25,4.27,2.22-.36,7.97,7.15,12.12,11.36,16.58,4.26,10.74,26.28,25.05,26.28,25.05,0,0,25.7,18.31,35.75,31.82,8.66,10.4,14.56,22.26,1.56,32.12-10.31,7.83-26.9,8.45-38.89,4.58-7.69-2.49-28.36-31.28-30.85-32.17-13.06-4.7-10.41-2.11-18.89-12.95-7.55-6.54-18.64-8.91-23.06-19.17-2.13-4.95,5.09-5.35-12.21-33.93-23.52-38.87-57.66-70.72-81.32-109.71-5.11-7.67-9.56-16.75-14.94-24.04-10.92-14.78-26.77-24.88-37.28-40.04-30.74-50.55-65.34-98.89-92.87-151.44-4.57-8.72-13.17-19.2-14.03-18.12,2.97,22.45.19,45.33,1.3,67.91,1.28,25.99,10.34,54.84,9.08,79.94-.47,9.46-2.7,19.83-3.23,29.26-1.1,19.36,4.61,36.42,7.06,55.31,5.55,35.84,3.3,74.25,14.52,108.95,9.01,18.38,10.36,16.43,10.95,37.79,3.68,9.26,3.64,13.62,2.48,23.46.25,16.9,4,27.54,2.2,44.95-.64,3.77-3.65,5.91-7.11,6.18-10.73.84-19.17.95-29.84.59-4.14-.14-17.16-.07-18.74-7.93-1.59-7.86,1.22-20.12,2.9-34.07.67-5.57-1.11-13.78-.65-18.73.6-6.47,5.67-9.11,3.08-16.83-1.62-4.83-1.88-2.77-2.43-8.56-.95-10-.96-18.52-5.39-27.81-1.84-3.87-5.69-7.85-6.69-12.21-6.45-28.14-21.16-57.24-28.68-86.28-9.72-37.52-6.97-76.34-11.96-114.76-4.72-36.35-17.21-76.75-27.53-112.19-3.49-10.37-4.98-26.84-12.53-34.25.32-8.9-2.41-18.45-3.95-27.24-9.19-74.12,62.06-116.75,68.69-187.83,1.09-83.47-13.63-98.19-87.41-133.99-19.05-10.72-55.64-29.1-60.32-52.08-2.13-10.46,6.49-16.91,11.67-24.15,8.66-12.13,16.39-24.91,26.27-36.16.41-8.61-.1-6.04-3.51-13.77-.4-1.61-.16-3.17-.43-4.77-.48-2.81-3.15-5.92,1.21-8.18,2.83-1.47,3.78-.1,6.38-.06,5.56.09,13.62.6,18.88-.01,1.21-.14,2.88-.57,3.61-1.59.49-.69,1.25-7.7,1.28-9.12.1-4.6-1.42-9.77-.39-14.04.95-3.93,3.98-2.29,5.49-4.9,2.16-3.73-1.7-7.98,3.82-9.83,7.25-2.42,20.77.76,27.78,3.69,1.82.76,6.24,4.1,7.6,3.84,6.54-3.51,17.64-20.47,25.46-19.42,3.35.45,2.27,3.63,1.14,5.67-1.62,2.93-4.44,3.95-6.33,6.02-2.61,2.86-4.49,6.37-6.81,9.44-1.17,1.54-5.35,3.82-2.95,5.58,2.73,2,7.57-2.8,10.19-4.19,5.22-2.76,21.12-11.48,26.19-10.82,1.16.15,2.02,1.12,2.46,2.14,2.52,5.77-8.68,6.26-9.9,10.87.56.48,7.24-.02,23.63,7.2,7.7-19.7,12.67-47.27,38.38-49.47,21.88-1.87,51.85,5.72,70.94,16.16,27.11,14.83,14.21,39.02,13.21,62.83-.05,1.26-.41,6.82.97,6.82,4.15,0,30.26.72,28.87,8.7ZM171.19,67.41c-22.21-7.68-16.42-11.23-39.43-.47-6.81,7.08,20.08-1.07,23.55.44,13.54,8.73-17.85,12.16-22.76,14.32-3.43,5.26-1.84,13.17-4.58,18.49-1.15,2.23-8.16,8.39-8.47,9.75,1.07,6.82.92,7.45-6.2,9.37-3.48.94-11.9,14.43-33.2,12.26-2.9-.29-9.14-3.3-11.08-2-.51.34-15.87,22.31-.71,26.8,30.85,18.15,46.76,17.1,80.56,23.38,18.94,3.52,21.42,11.26,29.61,2.15-3.62-8.64,6.28-13.47,12.71-16.47,2.79,7.22,13.96,2.18,17.87,2.91l1.62-8.19c-2.25-3.15-5.86-5.86-8.04-8.87-4.12-5.69-3.91-11.62-10.9-15.09-5.82-2.89-8.68-1.82-11.6-9.19-4.59-8.88-5.46-18.13-7.54-27.62-.34-3.41,2.33-3.37,4.62-4.56-6.58-10.04-1.72-19.89-6.02-27.43Z"/>
</svg>