<?xml version="1.0" encoding="UTF-8"?>
<svg id="Layer_1" data-name="Layer 1" xmlns="http://www.w3.org/2000/svg" viewBox="0 0 559.99 1031.3">
  <path d="M544.88,494.6c-24.92-17.13-65.57-48.97-73.07-54.07-7.5-5.1-36.24-15.22-55.31-19.81-.39-2.09-.89-3.81-1.7-5.78-3.13-7.61-9.83-10.41-12.34-18.41-1.66-21.95-13.3-42.9,1.46-92.67.66-2.45,5.84-9.56,8.75-9.34,8.87.66,15.47,18.43,19.45,25.14,4.24,7.14,10.39,12.68,14.68,19.3,5.37,8.29,6.97,17.19,14.28,24.98,3.94,4.2,17.76,14.27,23.18,14.9,11.73,1.36,20.28-6.69,24.75-16.72,4.01-9,.71-12.2-.94-20.58-.52-2.65-.22-5.43-.91-8.47-4.79-21.05-29.81-34.83-44.35-48.81-7.3-7.02-9.67-19.7-14.51-28.85-5.66-10.68-17.45-28.95-30.9-29.48-4.21-.17-4.67,2.16-7.79-2.14-6.64-9.18-5.14-17.67-17.1-22.74-3.12-1.33-13.23-2.23-15.99-2.42-3.18-.21,2.43-8.13,1.86-11.05-4.66-3.99-15.63,6.65-25.7-.91-8.89-2.75-6.17-15.6-6.17-15.6,6.03.05,7.81.66,13.57-6-13.97-7.32,18.3-17.73,9.11-30.15,2.09-1.94,8.85-3.76,9.71-14.9-.19-5.7-4.91-12.36-3.12-15.95,1.79-3.59,8.47-12.14-2.98-23.19.1-.97,4.89-4.14,6.04-4.88,1-.64,2.36-.71,3.34-1.34,3.2-2.07,22.47-14.05,10.62-20.43-4.23-3.08-19.6-5.82-25.19-6.33-1.77-.16-4.39.84-6.48-.67,0,0-23.8-42.73-24.81-44.34-2.33-3.73-10.42-3.01-14.25-2.44-13.83,2.04-22.95,12.97-35.6,18.3-24.94,7.92-33.25,4.71-35.89,5.12-16.76.26,4.53,59.89.71,63.38-.36,1.02-1.69.79-2.27,1.27-.83.71-2.56,3.49-4.17,4.6-1.64,1.13-12.37,6.82-11.72,10.1.58,2.91,15.08.91,18.37.05-2.58,1.01-13.03,16.24-9.09,23.83,3.94,7.59,12.78,7.25,4.81,19.06-7.97,11.81,33.27,14.36,18.63,32.65,11.97-3.99,7.76,2.66,16.63-.67,4.99,12.64,5.7,23.62-13.04,24.04-2.23-.08-8.67-3.7-9.93-1.79-2.91,4.39,4.97,10.2,1.15,14.05-15,13.59-35.78,13.73-53.45,22.12-13.48,6.4-15.03,25.86-15.64,38.85-1.18,24.94,8.87,42.59,5.34,68.64-1.86,13.73-4.28,29.07-7.23,42.58-3.96,18.12-10.9,17.54-22.13,29.43-9.06,9.59-15.26,19.98-25.74,28.75-6.88,5.75-22.97,18.3-25.58,19.65s-5.18,1.43-7.79,1.66c-14.89,1.28-20.93-6.12-24.28-7.48-5.95-2.43-19.46-13.84-23-16.74-4.35-3.56-21.06-10.65-23.79-11.28-4.45-1.01-8.21,3.29-6.45,5.45,1.32,1.61,4.67,4.46,4.08,4.81-.61.35-11.32-4.46-13.04-3.83-2.12.77-3.52,3.23-2.89,4.69-2.13.22-1.5,4.14-.68,3.98,0,0-3.04.97-1.01,4.88.91,1.75,4.59,4.08,5.09,4.74.44,8.98,24.47,18.21,27.97,20.7,6.51,4.64,7.02,7.11,12.22,9.75,24.94,12.64,34.25,11.64,37.58,10.64s9.03.53,12.97-1.16c4.7-2.01,4.42-3.49,5.67-4.53.13-.11,2.6-.07,3.77-.65,2.84-1.4,7.68-1.91,10.96-3.1,18.87-6.88,41.26-20.85,57.6-32.63,3.83-2.76,7.63-6.86,11.34-9.16,5.08-3.15,10.8-4.72,15.96-8.65,10.04-7.65,7.8-13.83,10.19-24.97,4.12-19.16,6.6-37.58,10.36-56.45.19-.94-.28-1.92.88-2.62,2.22,2.74,1.13,6.54,1.47,9.65,1.89,16.96,5.96,33.32,9.06,49.54,1.82,9.55,1.79,19.17,3.27,28.96.31,2.04,3.29,8.79,2.82,10.46-.68,1.63-2.62,1.6-3.99,2.5-10.15,6.65-32.61,37.53-38.43,48.87-2.42,4.72-3.53,10.11-6.23,14.87-9.3,16.43-20.87,32.35-30.69,48.41-1.48,2.41-4.85,4.69-4.98,7.97-.07,1.87,1.1,2.81,1.14,4.06.05,1.49-1.45,9.79-1.05,10.25,3.06.27,5.48,2.17,8.29,3.13,5.97,2.05,12.76,3.4,18.47,6.13l16.46,1.4c1.93,1.17-1.8,16.72-2.18,19.63-.16,1.23-1.04,8.62-.67,9h13.18c.54,0,2.33.93,3.25.85,2.33,1.58-1.54,19.94-1.77,23.48-.37,5.7.49,11.95-.01,17.57-.82,9.1-6.78,18.96-10.06,27.44-4.58,11.82-10.79,25.86-14.55,37.6-2.39,7.45-3.05,16.07-4.95,23.76-3.98,16.14-15.69,33.73-22.85,49.22-12.31,26.6-22.6,53.81-35.92,80.1-6.11,12.07-18.38,36.91-30.74,42.5-1.77.8-5.21,2.09-7.02,1.54-.95-.29-1.37-1.46-2.21-1.9-2.86-1.51-4.25-.38-6.7-.33-1.37.03-2.93-1.34-4.12-.03l-1.81,4.05c-7.44.08-14.8,2.04-22.19,2.41-9.23.47-18.27-1.55-26.64-5.57-7.95-3.81-23.79-15.9-32.24-8.21-2.27,2.06-1.17,2.87-2.05,4.4-.37.65-1.68.79-2.3,1.8-2.04,3.28-.64,5.03,1.43,7.88,9.14,12.59,31.18,28.53,44.92,36.52,11.53,6.7,24.75,8.39,37.21,14.34,1.28.61,7.57,3.66,8.08,4.22,1.9,2.05-1.13,4.12-1.64,6-.15.57-.76,4.71-.72,5.13.17,1.94,2.14,1.75,3.22,2.65,5.32,4.38,17.39,13.24,23.5,15.76,1.67.69,3.5.76,5.1,1.73,4.96-2.22,6.2-8.17,9.18-11.92,1.91-2.39,6.74-4.42,9.37-7.04,6.32-6.31,13.18-19.39,13.95-28.3.18-2.04-.85-2.52-1.05-3.98-.36-2.65,4.29-13.96,5.57-17.23,9.23-23.59,24.2-50.29,37.88-71.69,14.68-22.97,32.59-40.87,42.52-67.05,4.7-12.4,6.41-27.47,13.94-38.22,3.24-4.63,7.28-8.56,10.46-13.56,9.19-14.45,13.11-32.07,20.15-47.82,7.05-15.78,16.49-30.28,23.95-45.78,6.02-12.51,10.44-27.39,17.65-39.19.73-1.19,1.35-3.12,3.03-2.86.91.7,1.28,5.6,1.73,7.09.2.66-.38,1.04.88.84,5.38-3.36,17.66-15.35,23.87-14.53,4.84.64,4.77,7.87,5.77,11.57l3.48-.3c.91.55,1.63,4.17,1.74,5.33,1.58,15.87-2.13,34.22-.56,50.42-.63,14.42-4.44,28.12-2.23,42.62,1.8,11.86,5.91,24.66,7.41,36.54,1.77,14.05-1.69,28.09-2.3,42.1-1.3,30.06,1.42,62.17-.57,92.03-.6,9.01-2.87,20.02-6.15,28.42-1.44,3.69-4.06,7.66-5.26,11.14-3.07,8.87,1.18,17.12-.43,25.94-.43,2.37-2.76,4.37-3.89,6.66-3.02,6.11-.81,7.03.36,12.97.37,1.85-.06,3.72.29,5.57.48,2.56,2.75,4.74,3.22,7.91.46,3.15-.32,6.76.28,9.68.12.56,2.2,5.56,2.44,5.76,1.15.95,3.03.19,4.45.82.47.21,7.17,6.41,7.64,7.01.88,1.13.98,2.78,1.74,3.53.46.46,5.76,2.36,6.77,2.61,5.93,1.43,21.33,2.26,27.52,1.82,5.17-.37,5.13-1.61,8.64-3.08,6.06-2.54,9.29-1.27,9.78-9.55.64-10.88-5.13-13.01-8.64-21.23-2.09-4.92-1.19-4.42-.75-8.72.42-4.12-3.95-7.4-4.99-10.74-.72-2.31-.24-5.19-1.77-7.61-2.55-4.04-9.98-4.12-11.14-7.63-.74-2.23.79-4.86.95-7.33.46-7.23-1.15-14.45-.6-21.7,5.48-23.59,11.07-47.16,16.56-70.75,4.81-20.63,12.76-45.46,13.91-66.37,1.21-21.97-.03-44.32,0-66.22.05-37.97-1.23-81.18,9.64-117.53.58-1.93,1.98-10.03,3.57-10.51,3.3.06,2.83,5.65,6.36,5.75,9.08.24,26.82-7.84,35.02-12.38,3.87-2.14,12.44-6.97,13.09-11.55.31-2.17-3.45-5.91.25-9.08,4.88-4.19,8.99,3.12,14.9,2.04.82-.15,4.98-3.33,5.88-4.11,5.49-4.76,10.42-10.56,15.73-15.61,1.37-1.3,3.55-2.14,4.8-3.71.49-1.1-2.48-3.15-2.66-5.05-.1-1.04,1.15-4.88,1.65-5.92,2.23-4.65,7.43-9.7,10.31-13.71,5.32-7.41,10.15-12.79,11.49-21.9.12-.84.98-1.44,1.06-1.9.35-1.98-12.91-8.95-15.1-10.46Z"/>
</svg>