<?xml version="1.0" encoding="UTF-8"?>
<svg id="Layer_3" data-name="Layer 3" xmlns="http://www.w3.org/2000/svg" viewBox="0 0 137.05 49.19">
  <g id="_1" data-name="1">
    <path d="M2,10.04c-.5,0-.9-.11-1.2-.32-.3-.22-.51-.52-.64-.93-.13-.4-.17-.88-.14-1.45,0-.06.03-.09.08-.09h.45c.06,0,.09.03.08.09-.05.71.04,1.24.28,1.58.24.34.61.51,1.14.51.48,0,.84-.14,1.08-.41.24-.28.35-.71.35-1.3,0-.53-.08-.96-.23-1.29-.15-.33-.42-.63-.8-.91l-1.13-.87c-.43-.32-.74-.67-.93-1.06-.19-.39-.28-.87-.28-1.45C.1,1.46.27.94.61.56c.34-.38.81-.56,1.4-.56.69,0,1.2.23,1.54.68.33.46.47,1.1.41,1.93,0,.07-.02.11-.07.11h-.48s-.06-.03-.06-.11c.05-.65-.04-1.15-.27-1.5-.23-.35-.58-.52-1.04-.52-.41,0-.73.13-.96.39-.23.26-.35.64-.35,1.13,0,.46.07.85.23,1.16.15.31.4.6.74.86l1.11.86c.32.24.58.48.76.73.19.25.32.53.4.84.08.32.12.69.12,1.12,0,.76-.17,1.34-.5,1.75-.34.4-.86.6-1.57.6Z"/>
    <path d="M8.53,9.95c-.05,0-.07-.03-.07-.09V.69h-1.73c-.06,0-.09-.03-.09-.09V.18c0-.06.03-.09.09-.09h4.08c.05,0,.07.03.07.09v.42c0,.06-.02.09-.07.09h-1.73v9.16c0,.06-.03.09-.09.09h-.45Z"/>
    <path d="M15.97,10.04c-.75,0-1.3-.25-1.65-.76-.35-.51-.52-1.27-.52-2.29V.18c0-.06.02-.09.07-.09h.47c.05,0,.07.03.07.09v6.79c0,.84.12,1.47.37,1.87.25.4.64.6,1.18.6s.94-.2,1.18-.59c.25-.4.37-1.02.37-1.87V.18c0-.06.02-.09.08-.09h.47c.05,0,.08.03.08.09v6.8c0,1.02-.18,1.79-.53,2.29-.35.51-.9.76-1.64.76Z"/>
    <path d="M21.75,9.95c-.06,0-.09-.03-.09-.09V.18c0-.06.02-.09.07-.09h1.38c.99,0,1.73.32,2.2.96.48.64.71,1.66.71,3.06v1.6c0,1.47-.23,2.55-.68,3.23s-1.18,1.02-2.18,1.02h-1.43ZM22.28,9.34h.87c.82,0,1.41-.28,1.75-.85.35-.57.52-1.49.52-2.76v-1.63c0-1.2-.19-2.07-.56-2.61-.37-.54-.96-.8-1.76-.8h-.83v8.65Z"/>
    <path d="M29.49,9.95c-.05,0-.07-.03-.07-.09V.18c0-.06.02-.09.07-.09h.47c.05,0,.07.03.07.09v9.68c0,.06-.02.09-.07.09h-.47Z"/>
    <path d="M35.69,10.04c-.72,0-1.28-.23-1.66-.68s-.58-1.14-.58-2.04V2.74c0-.92.19-1.61.58-2.06s.94-.68,1.66-.68,1.26.23,1.66.68.59,1.14.59,2.06v4.57c0,.9-.2,1.58-.59,2.04s-.94.68-1.66.68ZM35.69,9.44c.52,0,.92-.18,1.2-.53.28-.35.42-.9.42-1.64V2.78c0-.75-.14-1.3-.42-1.66s-.68-.53-1.2-.53-.94.18-1.21.53c-.28.35-.41.9-.41,1.66v4.48c0,.74.14,1.29.41,1.64.28.35.68.53,1.21.53Z"/>
    <path d="M45.33,9.95c-.06,0-.09-.03-.09-.09V.18c0-.06.02-.09.07-.09h1.38c.99,0,1.73.32,2.2.96.48.64.71,1.66.71,3.06v1.6c0,1.47-.23,2.55-.68,3.23s-1.18,1.02-2.18,1.02h-1.43ZM45.86,9.34h.87c.82,0,1.41-.28,1.75-.85.35-.57.52-1.49.52-2.76v-1.63c0-1.2-.19-2.07-.56-2.61-.37-.54-.96-.8-1.76-.8h-.83v8.65Z"/>
    <path d="M53.07,9.95c-.05,0-.07-.03-.07-.09V.18c0-.06.02-.09.07-.09h3.27c.05,0,.08.03.08.09v.42c0,.06-.03.09-.08.09h-2.72v3.93h2.51c.05,0,.08.03.08.09v.39c0,.06-.03.09-.08.09h-2.51v4.15h2.72c.05,0,.08.03.08.09v.42c0,.06-.03.09-.08.09h-3.27Z"/>
    <path d="M63.74,9.95c-.06,0-.09-.03-.09-.09V.18c0-.06.02-.09.07-.09h1.38c.99,0,1.73.32,2.2.96.48.64.71,1.66.71,3.06v1.6c0,1.47-.23,2.55-.68,3.23s-1.18,1.02-2.18,1.02h-1.43ZM64.26,9.34h.87c.82,0,1.41-.28,1.75-.85.35-.57.52-1.49.52-2.76v-1.63c0-1.2-.19-2.07-.56-2.61-.37-.54-.96-.8-1.76-.8h-.83v8.65Z"/>
    <path d="M70.49,9.95c-.06,0-.09-.03-.08-.11L72.49.17s.04-.07.09-.07h.65c.05,0,.08.03.09.07l2.08,9.68c0,.07-.01.11-.06.11h-.5c-.05,0-.08-.03-.09-.08l-1.43-6.98c-.07-.35-.14-.7-.2-1.04-.06-.34-.13-.69-.2-1.04h-.01c-.06.35-.12.7-.19,1.05-.07.35-.14.7-.22,1.06l-1.43,6.95c0,.05-.04.08-.09.08h-.48ZM71.47,7.3l.14-.6h2.59l.14.6h-2.86Z"/>
    <path d="M78.18,9.95s-.06-.03-.06-.09V.18c0-.06.02-.09.07-.09h.78c.05,0,.08.02.09.06l1.87,5.78c.12.33.24.68.35,1.05s.23.74.34,1.11.22.72.32,1.05h.02c0-.25,0-.51,0-.78s0-.55-.01-.83c0-.28,0-.56,0-.84V.18c0-.06.02-.09.07-.09h.45c.05,0,.07.03.07.09v9.68c0,.06-.02.09-.07.09h-.78s-.07-.02-.09-.06l-1.8-5.58c-.19-.58-.37-1.16-.55-1.75-.18-.58-.34-1.14-.5-1.67h-.03c0,.35.02.72.02,1.12s0,.79,0,1.19,0,.78,0,1.15v5.51c0,.06-.03.09-.07.09h-.47Z"/>
    <path d="M87.69,10.04c-.5,0-.9-.11-1.2-.32-.3-.22-.51-.52-.64-.93-.13-.4-.17-.88-.14-1.45,0-.06.03-.09.08-.09h.45c.06,0,.09.03.08.09-.05.71.04,1.24.28,1.58.24.34.61.51,1.14.51.48,0,.84-.14,1.08-.41.24-.28.35-.71.35-1.3,0-.53-.08-.96-.23-1.29-.15-.33-.42-.63-.8-.91l-1.13-.87c-.43-.32-.74-.67-.93-1.06-.19-.39-.28-.87-.28-1.45,0-.67.17-1.2.51-1.57.34-.38.81-.56,1.4-.56.69,0,1.2.23,1.54.68.33.46.47,1.1.41,1.93,0,.07-.02.11-.07.11h-.48s-.06-.03-.06-.11c.05-.65-.04-1.15-.27-1.5-.23-.35-.58-.52-1.04-.52-.41,0-.73.13-.96.39-.23.26-.35.64-.35,1.13,0,.46.07.85.23,1.16.15.31.4.6.74.86l1.11.86c.32.24.58.48.76.73.19.25.32.53.4.84.08.32.12.69.12,1.12,0,.76-.17,1.34-.5,1.75-.34.4-.86.6-1.57.6Z"/>
    <path d="M93.06,9.95c-.05,0-.07-.03-.07-.09V.18c0-.06.02-.09.07-.09h3.27c.05,0,.08.03.08.09v.42c0,.06-.03.09-.08.09h-2.72v3.93h2.51c.05,0,.08.03.08.09v.39c0,.06-.03.09-.08.09h-2.51v4.15h2.72c.05,0,.08.03.08.09v.42c0,.06-.03.09-.08.09h-3.27Z"/>
  </g>
  <g>
    <path d="M0,48.53V16.11h6.36v32.43H0Z"/>
    <path d="M10.97,48.53V16.11h7.96l4.44,20.96,4.5-20.96h7.9v32.43h-5.6v-24.25l-4.66,24.25h-4.33l-4.61-24.25v24.25h-5.6Z"/>
    <path d="M40.38,48.53V16.11h11.52c2.16,0,3.79.48,4.91,1.45,1.12.97,1.67,2.31,1.67,4.03v5.6c0,1.46-.18,2.83-.55,4.09-.37,1.26-1.02,2.28-1.98,3.04-.95.77-2.32,1.15-4.11,1.15h-4.83v13.06h-6.64ZM47.02,31.96h2.47c.88,0,1.54-.42,1.97-1.26.44-.84.66-2.23.66-4.17v-2.19c0-1.72-.18-2.94-.55-3.68-.37-.73-.9-1.1-1.59-1.1h-2.96v12.4Z"/>
    <path d="M70.83,49.19c-1.32,0-2.52-.09-3.62-.27-1.1-.18-2.05-.57-2.85-1.15-.81-.58-1.43-1.45-1.87-2.61-.44-1.15-.66-2.72-.66-4.69v-24.36h6.37v26.17c0,.77.12,1.38.36,1.84.24.46.56.76.96.91.4.15.84.22,1.32.22.44,0,.86-.07,1.26-.22.4-.15.72-.45.96-.91.24-.46.36-1.07.36-1.84v-26.17h6.36v24.36c0,1.94-.22,3.49-.66,4.66-.44,1.17-1.05,2.05-1.84,2.63-.79.59-1.74.97-2.85,1.15-1.12.18-2.31.27-3.59.27Z"/>
    <path d="M84.27,48.53V16.11h6.31v28.04h7.35v4.39h-13.66Z"/>
    <path d="M122.13,48.53V16.11h14.92v4.5h-8.29v8.67h7.02v4.99h-7.02v9.88h8.29v4.39h-14.92Z"/>
    <g>
      <path d="M110.54,29.44c-.3-.29-.58-.58-.86-.85-.27-.27-.49-.69-.65-1.23-.16-.55-.25-1.35-.25-2.41,0-.8.02-1.37.07-1.7s.17-.49.35-.49c.23,0,.36.25.4.74.04.49.05,1.49.05,2.99v1.43h2.39v-10.16c-.66-1.27-1.62-1.91-2.89-1.91-1,0-1.78.3-2.35.91-.07.07-.13.17-.19.26v16.89c.2.36.43.69.69.99.57.62,1.02,1.12,1.36,1.48.33.37.57.82.72,1.37.14.55.21,1.41.21,2.58,0,1.24-.03,2.06-.1,2.44-.06.38-.17.58-.33.58-.1,0-.18-.08-.25-.25-.06-.16-.11-.49-.15-.99-.04-.49-.05-1.23-.05-2.22v-2.8h-2.1v10.56c.11.14.22.28.33.38.59.53,1.31.79,2.15.79s1.59-.3,2.2-.91c.28-.28.53-.65.75-1.1v-15.54c-.39-.63-.9-1.24-1.52-1.82Z"/>
      <g>
        <path d="M117.11,31.33s0-.01-.01-.02v15.54c.26-.54.48-1.18.66-1.97.33-1.44.49-3.39.49-5.84,0-2.19-.09-3.87-.28-5.02-.19-1.15-.47-2.05-.87-2.69Z"/>
        <path d="M118.1,27.95v-4.17c0-2.67-.33-4.65-.98-5.95,0-.01-.01-.02-.02-.04v10.16h1Z"/>
      </g>
      <g>
        <path d="M100.57,19.71c-.24,1.37-.35,3.21-.35,5.51,0,1.65.06,3.08.18,4.31.12,1.23.33,2.27.63,3.13.15.44.34.85.55,1.23v-16.89c-.46.61-.81,1.5-1.01,2.71Z"/>
        <path d="M100.11,37.07v2.03c0,2.6.15,4.6.46,6.01.25,1.13.59,1.96,1.01,2.52v-10.56h-1.47Z"/>
      </g>
      <g>
        <path d="M106.26,27.35c-.16-.55-.25-1.35-.25-2.41,0-.8.02-1.37.07-1.7s.17-.49.35-.49c.03,0,.05.02.08.02v-6.93s-.08,0-.12,0c-1,0-1.78.3-2.35.91-.57.6-.97,1.59-1.21,2.96-.24,1.37-.35,3.21-.35,5.51,0,1.65.06,3.08.18,4.31.12,1.23.33,2.27.63,3.13.3.86.71,1.6,1.24,2.22.57.62,1.02,1.12,1.36,1.48.27.3.48.66.63,1.09v-9.42c-.1-.19-.19-.41-.26-.66Z"/>
        <path d="M106.4,43.32c-.1,0-.18-.08-.25-.25-.06-.16-.11-.49-.15-.99-.04-.49-.05-1.23-.05-2.22v-2.8h-3.57v2.03c0,2.6.15,4.6.46,6.01.31,1.41.75,2.38,1.35,2.91.59.53,1.31.79,2.15.79.07,0,.12-.01.19-.02v-5.52s-.08.05-.12.05Z"/>
      </g>
      <g>
        <path d="M114.93,31.28c-.39-.64-.9-1.25-1.53-1.84-.3-.29-.58-.58-.86-.85-.15-.15-.27-.34-.39-.57v9.42c.03.09.06.18.09.28.14.55.21,1.41.21,2.58,0,1.24-.03,2.06-.1,2.44-.05.27-.12.44-.21.52v5.52c.77-.04,1.45-.33,2.01-.89.61-.6,1.08-1.63,1.41-3.07.33-1.44.49-3.39.49-5.84,0-2.19-.09-3.87-.28-5.02-.19-1.15-.47-2.05-.87-2.69Z"/>
        <path d="M112.47,23.49c.04.49.05,1.49.05,2.99v1.43h3.4v-4.17c0-2.67-.33-4.65-.98-5.95-.63-1.25-1.56-1.9-2.78-1.94v6.93c.18.06.28.29.31.72Z"/>
      </g>
    </g>
  </g>
</svg>