<?xml version="1.0" encoding="UTF-8"?>
<svg id="Layer_3" data-name="Layer 3" xmlns="http://www.w3.org/2000/svg" viewBox="0 0 137.05 49.19">
  <defs>
    <style>
      .cls-1 {
        fill: #fff;
      }
    </style>
  </defs>
  <g>
    <path class="cls-1" d="M1.97,10.08c-.48,0-.87-.1-1.17-.31-.3-.21-.51-.51-.64-.91-.13-.4-.18-.88-.15-1.46,0-.06.03-.09.08-.09h.36s.08.03.08.09c-.05.74.05,1.28.29,1.64.25.36.64.54,1.19.54.51,0,.89-.14,1.14-.43.25-.29.37-.74.37-1.37,0-.56-.08-1.01-.23-1.35-.16-.34-.45-.66-.87-.96l-1.09-.85c-.43-.33-.74-.69-.93-1.06S.11,2.7.11,2.11C.11,1.45.28.93.62.56c.34-.37.79-.56,1.37-.56.69,0,1.19.23,1.52.68s.46,1.1.4,1.93c0,.06-.02.09-.06.09h-.39s-.06-.03-.04-.09c.04-.68-.06-1.21-.3-1.57-.24-.36-.61-.54-1.1-.54-.43,0-.77.14-1.01.42-.24.28-.36.67-.36,1.19,0,.48.08.88.23,1.2.15.32.41.62.77.9l1.09.83c.33.25.59.5.79.75s.33.53.41.85c.08.32.12.69.12,1.13,0,.76-.17,1.34-.5,1.74-.33.39-.85.59-1.56.59Z"/>
    <path class="cls-1" d="M8.56,9.99s-.06-.03-.06-.08V.59h-1.78c-.05,0-.08-.03-.08-.08V.17c0-.05.02-.08.08-.08h4.08s.06.02.06.08v.35s-.02.08-.06.08h-1.78v9.32s-.03.08-.08.08h-.38Z"/>
    <path class="cls-1" d="M15.98,10.08c-.74,0-1.27-.25-1.62-.76-.34-.5-.51-1.27-.51-2.3V.17c0-.05.02-.08.06-.08h.38c.05,0,.08.02.08.08v6.84c0,.88.13,1.52.38,1.94.26.42.67.63,1.23.63s.99-.21,1.25-.63c.26-.42.39-1.06.39-1.94V.17c0-.05.02-.08.06-.08h.38c.05,0,.08.02.08.08v6.86c0,1.03-.17,1.79-.52,2.3-.35.5-.89.76-1.62.76Z"/>
    <path class="cls-1" d="M21.79,9.99c-.05,0-.08-.03-.08-.08V.17c0-.05.02-.08.06-.08h1.36c.99,0,1.72.32,2.19.95.47.63.71,1.67.71,3.11v1.63c0,1.47-.22,2.54-.67,3.2s-1.17,1-2.17,1h-1.41ZM22.23,9.49h.94c.87,0,1.47-.29,1.83-.87s.53-1.52.53-2.82v-1.65c0-1.26-.19-2.17-.57-2.73-.38-.56-.99-.84-1.83-.84h-.89v8.9Z"/>
    <path class="cls-1" d="M29.54,9.99s-.06-.03-.06-.08V.17c0-.05.02-.08.06-.08h.38c.05,0,.08.02.08.08v9.74s-.03.08-.08.08h-.38Z"/>
    <path class="cls-1" d="M35.69,10.08c-.71,0-1.25-.23-1.63-.68s-.57-1.13-.57-2.04V2.73c0-.93.19-1.61.57-2.06s.93-.67,1.63-.67,1.26.22,1.65.67c.38.45.57,1.14.57,2.06v4.62c0,.91-.19,1.59-.57,2.04-.38.45-.93.68-1.65.68ZM35.69,9.58c.55,0,.98-.18,1.27-.55.29-.37.44-.93.44-1.7V2.76c0-.78-.15-1.35-.44-1.71s-.72-.55-1.27-.55-.97.18-1.26.55-.43.94-.43,1.71v4.56c0,.77.14,1.33.43,1.7.29.37.71.55,1.26.55Z"/>
    <path class="cls-1" d="M45.45,9.99c-.05,0-.08-.03-.08-.08V.17c0-.05.02-.08.06-.08h1.36c.99,0,1.72.32,2.19.95.47.63.71,1.67.71,3.11v1.63c0,1.47-.22,2.54-.67,3.2s-1.17,1-2.17,1h-1.41ZM45.89,9.49h.94c.87,0,1.47-.29,1.83-.87s.53-1.52.53-2.82v-1.65c0-1.26-.19-2.17-.57-2.73-.38-.56-.99-.84-1.83-.84h-.89v8.9Z"/>
    <path class="cls-1" d="M53.21,9.99c-.05,0-.08-.03-.08-.08V.17c0-.05.02-.08.06-.08h3.23s.08.02.08.08v.35s-.03.08-.08.08h-2.78v4.09h2.58s.06.03.06.08v.33c0,.05-.02.08-.06.08h-2.58v4.32h2.78s.08.02.08.08v.35s-.03.08-.08.08h-3.22Z"/>
    <path class="cls-1" d="M63.95,9.99c-.05,0-.08-.03-.08-.08V.17c0-.05.02-.08.06-.08h1.36c.99,0,1.72.32,2.19.95.47.63.71,1.67.71,3.11v1.63c0,1.47-.22,2.54-.67,3.2s-1.17,1-2.17,1h-1.41ZM64.39,9.49h.94c.87,0,1.47-.29,1.83-.87s.53-1.52.53-2.82v-1.65c0-1.26-.19-2.17-.57-2.73-.38-.56-.99-.84-1.83-.84h-.89v8.9Z"/>
    <path class="cls-1" d="M70.74,9.99c-.06,0-.08-.03-.08-.09L72.78.15s.04-.06.09-.06h.51c.05,0,.08.02.09.06l2.12,9.74c0,.06,0,.09-.06.09h-.41s-.07-.02-.08-.06l-1.5-7.16c-.07-.35-.14-.7-.2-1.04-.07-.34-.13-.68-.2-1.03h-.03c-.06.34-.12.69-.19,1.04-.07.35-.14.71-.22,1.06l-1.5,7.13s-.04.06-.09.06h-.38ZM71.66,7.27l.11-.5h2.7l.12.5h-2.93Z"/>
    <path class="cls-1" d="M78.41,9.99s-.06-.03-.06-.08V.17c0-.05.02-.08.06-.08h.65s.08.01.09.04l1.93,5.8c.14.36.27.74.39,1.12s.24.77.37,1.15.24.75.35,1.12h.03c0-.27-.02-.55-.02-.83,0-.28,0-.57,0-.86V.17c0-.05.02-.08.06-.08h.38s.06.02.06.08v9.74s-.02.08-.06.08h-.65s-.07-.01-.08-.04l-1.89-5.61c-.21-.6-.41-1.21-.6-1.81s-.38-1.19-.57-1.77h-.01c0,.38,0,.78,0,1.19,0,.41,0,.82,0,1.22v6.75s-.02.08-.06.08h-.38Z"/>
    <path class="cls-1" d="M87.9,10.08c-.48,0-.87-.1-1.17-.31-.3-.21-.51-.51-.64-.91-.13-.4-.18-.88-.15-1.46,0-.06.03-.09.08-.09h.36s.08.03.08.09c-.05.74.05,1.28.29,1.64.25.36.64.54,1.19.54.51,0,.89-.14,1.14-.43.25-.29.37-.74.37-1.37,0-.56-.08-1.01-.23-1.35-.16-.34-.45-.66-.87-.96l-1.09-.85c-.43-.33-.74-.69-.93-1.06s-.28-.86-.28-1.44c0-.66.17-1.18.51-1.56.34-.37.79-.56,1.37-.56.69,0,1.19.23,1.52.68s.46,1.1.4,1.93c0,.06-.02.09-.06.09h-.39s-.06-.03-.04-.09c.04-.68-.06-1.21-.3-1.57-.24-.36-.61-.54-1.1-.54-.43,0-.77.14-1.01.42-.24.28-.36.67-.36,1.19,0,.48.08.88.23,1.2.15.32.41.62.77.9l1.09.83c.33.25.59.5.79.75s.33.53.41.85c.08.32.12.69.12,1.13,0,.76-.17,1.34-.5,1.74-.33.39-.85.59-1.56.59Z"/>
    <path class="cls-1" d="M93.32,9.99c-.05,0-.08-.03-.08-.08V.17c0-.05.02-.08.06-.08h3.23s.08.02.08.08v.35s-.03.08-.08.08h-2.78v4.09h2.58s.06.03.06.08v.33c0,.05-.02.08-.06.08h-2.58v4.32h2.78s.08.02.08.08v.35s-.03.08-.08.08h-3.22Z"/>
  </g>
  <g>
    <path class="cls-1" d="M0,48.53V16.11h6.36v32.43H0Z"/>
    <path class="cls-1" d="M10.97,48.53V16.11h7.96l4.44,20.96,4.5-20.96h7.9v32.43h-5.6v-24.25l-4.66,24.25h-4.33l-4.61-24.25v24.25h-5.6Z"/>
    <path class="cls-1" d="M40.38,48.53V16.11h11.52c2.16,0,3.79.48,4.91,1.45,1.12.97,1.67,2.31,1.67,4.03v5.6c0,1.46-.18,2.83-.55,4.09-.37,1.26-1.02,2.28-1.98,3.04-.95.77-2.32,1.15-4.11,1.15h-4.83v13.06h-6.64ZM47.02,31.96h2.47c.88,0,1.54-.42,1.97-1.26.44-.84.66-2.23.66-4.17v-2.19c0-1.72-.18-2.94-.55-3.68-.37-.73-.9-1.1-1.59-1.1h-2.96v12.4Z"/>
    <path class="cls-1" d="M70.83,49.19c-1.32,0-2.52-.09-3.62-.27-1.1-.18-2.05-.57-2.85-1.15-.81-.58-1.43-1.45-1.87-2.61-.44-1.15-.66-2.72-.66-4.69v-24.36h6.37v26.17c0,.77.12,1.38.36,1.84.24.46.56.76.96.91.4.15.84.22,1.32.22.44,0,.86-.07,1.26-.22.4-.15.72-.45.96-.91.24-.46.36-1.07.36-1.84v-26.17h6.36v24.36c0,1.94-.22,3.49-.66,4.66-.44,1.17-1.05,2.05-1.84,2.63-.79.59-1.74.97-2.85,1.15-1.12.18-2.31.27-3.59.27Z"/>
    <path class="cls-1" d="M84.27,48.53V16.11h6.31v28.04h7.35v4.39h-13.66Z"/>
    <path class="cls-1" d="M122.13,48.53V16.11h14.92v4.5h-8.29v8.67h7.02v4.99h-7.02v9.88h8.29v4.39h-14.92Z"/>
    <g>
      <path class="cls-1" d="M110.54,29.44c-.3-.29-.58-.58-.86-.85-.27-.27-.49-.69-.65-1.23-.16-.55-.25-1.35-.25-2.41,0-.8.02-1.37.07-1.7s.17-.49.35-.49c.23,0,.36.25.4.74.04.49.05,1.49.05,2.99v1.43h2.39v-10.16c-.66-1.27-1.62-1.91-2.89-1.91-1,0-1.78.3-2.35.91-.07.07-.13.17-.19.26v16.89c.2.36.43.69.69.99.57.62,1.02,1.12,1.36,1.48.33.37.57.82.72,1.37.14.55.21,1.41.21,2.58,0,1.24-.03,2.06-.1,2.44-.06.38-.17.58-.33.58-.1,0-.18-.08-.25-.25-.06-.16-.11-.49-.15-.99-.04-.49-.05-1.23-.05-2.22v-2.8h-2.1v10.56c.11.14.22.28.33.38.59.53,1.31.79,2.15.79s1.59-.3,2.2-.91c.28-.28.53-.65.75-1.1v-15.54c-.39-.63-.9-1.24-1.52-1.82Z"/>
      <g>
        <path class="cls-1" d="M117.11,31.33s0-.01-.01-.02v15.54c.26-.54.48-1.18.66-1.97.33-1.44.49-3.39.49-5.84,0-2.19-.09-3.87-.28-5.02s-.47-2.05-.87-2.69Z"/>
        <path class="cls-1" d="M118.1,27.95v-4.17c0-2.67-.33-4.65-.98-5.95,0-.01-.01-.02-.02-.04v10.16h1Z"/>
      </g>
      <g>
        <path class="cls-1" d="M100.57,19.71c-.24,1.37-.35,3.21-.35,5.51,0,1.65.06,3.08.18,4.31.12,1.23.33,2.27.63,3.13.15.44.34.85.55,1.23v-16.89c-.46.61-.81,1.5-1.01,2.71Z"/>
        <path class="cls-1" d="M100.11,37.07v2.03c0,2.6.15,4.6.46,6.01.25,1.13.59,1.96,1.01,2.52v-10.56h-1.47Z"/>
      </g>
      <g>
        <path class="cls-1" d="M106.26,27.35c-.16-.55-.25-1.35-.25-2.41,0-.8.02-1.37.07-1.7s.17-.49.35-.49c.03,0,.05.02.08.02v-6.93s-.08,0-.12,0c-1,0-1.78.3-2.35.91-.57.6-.97,1.59-1.21,2.96-.24,1.37-.35,3.21-.35,5.51,0,1.65.06,3.08.18,4.31.12,1.23.33,2.27.63,3.13.3.86.71,1.6,1.24,2.22.57.62,1.02,1.12,1.36,1.48.27.3.48.66.63,1.09v-9.42c-.1-.19-.19-.41-.26-.66Z"/>
        <path class="cls-1" d="M106.4,43.32c-.1,0-.18-.08-.25-.25-.06-.16-.11-.49-.15-.99-.04-.49-.05-1.23-.05-2.22v-2.8h-3.57v2.03c0,2.6.15,4.6.46,6.01.31,1.41.75,2.38,1.35,2.91.59.53,1.31.79,2.15.79.07,0,.12-.01.19-.02v-5.52s-.08.05-.12.05Z"/>
      </g>
      <g>
        <path class="cls-1" d="M114.93,31.28c-.39-.64-.9-1.25-1.53-1.84-.3-.29-.58-.58-.86-.85-.15-.15-.27-.34-.39-.57v9.42c.03.09.06.18.09.28.14.55.21,1.41.21,2.58,0,1.24-.03,2.06-.1,2.44-.05.27-.12.44-.21.52v5.52c.77-.04,1.45-.33,2.01-.89.61-.6,1.08-1.63,1.41-3.07.33-1.44.49-3.39.49-5.84,0-2.19-.09-3.87-.28-5.02-.19-1.15-.47-2.05-.87-2.69Z"/>
        <path class="cls-1" d="M112.47,23.49c.04.49.05,1.49.05,2.99v1.43h3.4v-4.17c0-2.67-.33-4.65-.98-5.95-.63-1.25-1.56-1.9-2.78-1.94v6.93c.18.06.28.29.31.72Z"/>
      </g>
    </g>
  </g>
</svg>