<?xml version="1.0" encoding="UTF-8"?>
<svg id="Layer_1" data-name="Layer 1" xmlns="http://www.w3.org/2000/svg" viewBox="0 0 829.65 972.13">
  <path d="M728.57,36.63c-.54-4.63-11.08,4.26-13.25,4.97-35.56,26.42-64.1,62.86-105.46,83.33-31.09,53.13-130.47,103.19-117.25,164.25,5.51,34.89-8.21,80.75-20.1,113.96-1.77,17.18,7.72,42.67,11.51,60.46,11.2,46.04,13.81,94.16,24.56,140.23-.29,1.46-25.96,6.83-29.03,4.63,4.89,34.39-.81,69.5-4.99,103.4.5,19.16-1.68,36.69-14.19,51.74-6.35,55.28-109.97,106.11-93.47,147.81,8.28,14.3,22.55,32.83,38.66,35.27,7.39,5.81,26.07,23.04,5.33,25.15-14.16,1.65-54.66-3.41-59.72-19.69-.26-.35-6.1-5.28-6.47-5.5-9.45-3.95-28.28-5.52-35.75-14.21-2.24-13.12-.04-28.13,6.61-39.97,8.18-6.41,9.89-15.18,13.79-24.16,8.32-15.96,19.54-31.04,27.89-47.03,10.72-20.53,10.64-37.52,26.04-57.87,4.61-6.09,19.39-19.27,20.9-25.05,5.37-40.7-.65-89.07-16-126.91l-43.24-5.68c-2.3-.44-.88-8.86-1.22-10.29-23.35,7.7-30.83-18.26-41.94,7.49-28.17,28.96-49.7,64.15-73.39,96.42-5.48,14.02-9.73,29.24-19.98,40.95-10.31,8.75-20.48,19.01-26.48,31.46-7.2,9.89-29.72,36.72-31.72,47.18-2.19,12.68,10.93,12.27,10.5,29.98-13.38,26.74-34.3,10.01-48.7,26.73-.9,3.2-3.03,4.72-6.05,6.2-5.64,6.96-1.66,20.33-14.9,30.79-3.75,2.97-9.71,3.02-7,8.46-19.48,5.1-24.98-3.78-27.65-21.34,3.6-25.33,21.49-46.92,35.46-66.23,35.17-68.55,65.14-137.7,105.57-203.1,14.09-27.71,18.35-62.57,36.31-87.66.44-3.03-3.96-4.69-1.95-7.75,32.92-54.69,51.79-120.54,103.5-161.38l-3.24-21.11c6.61-14.89-5.29-30.14-8.09-44.52,2.98-8.48-7.53-4.2-12.22-3.8-1.11.28-64.86,45.7-85.81,53.03-18.37,5.64-19.38,6.96-35.1,16.85-26.9,22.54-96.9,31.96-109.34,54.47.88,11.41-9.21,19.61-15.26,27.69-5.2,7.87-6.18,23.23-19.15,20.32-.1-2.45.83-5.28-1.49-6.98-4.6,2.84-7.72,22.08-17.74,19.2-21.95,10.54-6.38-21.94-3.74-31.2-13.74,16.33-37.15,19.55-14.97-6.5,19.15-15.67,36.09-33.2,53.41-50.47,23.18-16.34,52.13-26.38,76.36-41.51,48.64-27.6,99.99-58.17,136.89-100.85,2.79-2.98,15.94-13.52,16.5-14.47-1.5-16.19,19.15-7.9,28.75-8.19,7.53-.06,13.77-8.8,20.54-8,3.22-1.92,9.58-20.07,10.04-24.37,1.29-10.36-3.5-15.06-3.81-24.65-5-8.18-35.26-4.85-42.99-10.25-5.58-5.58-10.59-18.04-13.03-25.92s-2.31-11.19-1.98-13.8c.56-4.36,7.32-11.31,5.9-25.19,2.08-9.4-2.39-14.55-.92-20.95-1.33-12.32,5.48-21.82,9.5-33.45,8.13-23.5,71.98-28.15,114.06-9.23,6.42,2.89,15.31,3.72,21.1,10.34,14.08,16.09,20.03,39.64,2.15,49.31-15.14,8.19-.44,45.89-28.57,56.41-16.72,6.25,20.76,40.46,38.01,33.96,6.87,1.58,8.48,2.34,12-4.99,1.96-2.14,11.99-8.79,14.5-9.55,7.92,1.84,17.9-9.94,25.68-14.19,42.41-15.27,88.83-81.32,104.86-92.92s74.2-31.25,102.18-57.64C728.15,4.09,754.19,4.81,772.7,0c17.64,6.42,34.61,5.23,50.49,16.52,2.24,1.78,10.14,2.61,4.43,8.51-7.48,7.74-20.83-6.37-29.96-7.01-6.16,1-31.49-.19-29.44,9.48,1.2,7.1,23.68,3.11,25.76,12.25,3.28,14.41-17.44,5.11-23.35,4.35-18.21-2.34-23.65-.6-42.04-7.48h-.02Z"/>
</svg>