<?xml version="1.0" encoding="UTF-8"?>
<svg id="OBJECTS" xmlns="http://www.w3.org/2000/svg" version="1.1" viewBox="0 0 257.27 186.21">
  <!-- Generator: Adobe Illustrator 30.0.0, SVG Export Plug-In . SVG Version: 2.1.1 Build 123)  -->
  <defs>
    <style>
      .st0 {
        fill: #373a39;
      }
    </style>
  </defs>
  <path class="st0" d="M15.52,40.03c-.24,1.81,2.55,6.22,3.92,3.02,0-.91-.57-1.89.2-2.65.29-2.47,2.52.63,3.47,1.27.82,1.26,2.88,1.82,3.64,2.77-1.73.5-3.96-.04-5.32,1.4-.57.58-1,.44-1.73.48-.76.05-1.31.79-2.07.76-2.17-1.25-2.65-.61-3.99,1.31-.71.17-1.6.06-2.29.3-.91.36-1.03,1.28-1.81,1.74-.37.22-.71.31-.87.75-.32,1.06.25,2.04.65,2.98.16.62,0,1,.63,1.41.68.39,1.5.59,1.84,1.37.24.36.33.32.03.73-1.43,1.51.35,2.21,1.52,1.07.55-.41,1.06-.1,1.65-.15.74-.77,1.7-1.17,2.49-1.83.22-.33.26-.47.67-.57,1.82-.46,3.74-.16,5.57-.44,1.09.16,1.6,1.48,2.81,1.32,4.29-.49,8.52-.94,12.72-2.07.61-.2-.33,2.17-.26,2.75-3.9,14.42-5.46,28.94-6.64,43.68-.23,2.53,3.24,11.91,6.48,7.94,1.93-1.58,2.51-11.18,5.33-5.41,3.11,1.72,8.63-7.82,9.32-10.42,2.29-5.85-2.29,4.86,14.29,19.45,3.89,3.42,9.42,12.65,14.54,16.67,3.17,2.48,1.79,4.11,1.17,4.23-1.55.17-2.15,1.56-2.01,2.84-4.89,2.45-9.87,5.56-14.87,8.01-1.58.64-3.15,1.57-3.69,3.27-.35,1.11-.42,2.01-1.66,2.44-3.16,2.04-6.39-1.54-8.82.47-8.1-3.15-6.26,7.37-5.73,12.13.15,7.83-1.71,20,7.57,23.18,2.56-.32,2.53-4.46,2.68-6.29.68-5.87,4.24-10.82,10.14-12.23,6.36-2.43,13.07-5.14,18.58-9.1,2.46,6.94,2.88,14.39,5.5,21.25,1.47,2.71,5.17,7.66,8.53,4.96.77-.98-.04-2.61-.41-3.58-2.99-6.11,2.1-11.42,2.88-17.21,1.84.18,3.73,2.03,4.82-.23,8.11-15,15.49-30.84,18.79-47.72.18-7.45-8.44-11.3-12.86-16.25-2.75-2.21-5.64-4.49-8.72-6.12-1.03-.13-1.99-.44-2.72-1.21-3.36-3.98-3.15-.78-6.49-3.23-1.24-.34-5.4-5.48-7.44-6.48-1.71-.15-1.65-.79-.99-2.78.31-.93-6.84-13.22-8.98-19.07-.53-1.43-2.58-5.72-2.36-6.07.48-.79.72-1.32.72-1.32,0,0-2.71-10.16-4.16-12.15-.46-1.01.12-1.97.09-2.99-.03-.98-.82-1.46-1.47-2.05-.65-.75-.54-1.69-1.17-2.4.56-.85.66-1.51,2.1-.9,1.24.52,4.29,3.19,5.98,1.38.59-.68.73-1.49,1.11-2.27.49-1.2,2.41-1.01,2.01-2.58.06-1.05,2.28-.77,1.38-2.18-1.31-2.04,1.15-1.14,1.88-2.18.26-.46-.16-.93-.41-1.3-1.55-1.95-.77-4.21-.28-6.32.18-1.56,3.73-.28,5.24-1.33,9.37-3.47-3.07-3.73-4.4-4.2-.17-4.85.91-8.92-9.81-10.83-7.29-1.3-14.55,1.41-16.17,10.77-.24,1.39-.55.99-1.56,1.32-.45.4-.09,1.01-.39,1.42-.31.43-.94.31-1.01,1.02-.07.63.56.97.33,1.62-.19.54-.5.93-.27,1.54,2.06,4.09-4.85-2.26-12.71,2.81-2.95,1-4.61,4.7-7.9,4.4-3.42.41-6.78-.37-10.17-.37-1.35-1-2.65-3.13-4.59-1.97-4.08,1.63-4.47,4.63-9.66,3.5-2.13-.37-4.01-.1-6.03.37-.59.03-4.47-.38-3.84.89,1.14,1.59,3.6,1.12,5.27,1.33.03-.03.05.02.05-.03,1.19,2.54.4,1.79-.54,3.87.42,2.72,2.02,5.45,4.3,7.02.87.31,1.56-.67,2.49-.19,1.29-.11,2.55-1.05,3.94-.52,0,.04-.09,0-.07.03Z"/>
  <g>
    <path class="st0" d="M121.8,51.59c.06.11.12.21.2.3-.07-.1-.14-.2-.2-.3Z"/>
    <path class="st0" d="M257.12,182.26c-1.21-3.82-4.62-6.86-5.88-10.76.2-1.46.76-2.93-.58-4.08-.44.26-.6,1.13-1.05,1.23-1.72-1.17-2.47-4.4-4.3-5.84-1.4-1.21-3.04-2.29-3.15-4.32-1.35-1.96-2.49-3.8-1.66-6.17-.8-3.52-5.61-4.33-7.24-7.16-2.31-6.87-8.33-11.28-12.59-16.83-6.79-9.74-10.84-21.05-17.55-30.87-3.73-4.97-7.08-9.99-9.79-15.57-1.92-4.19-6.9-5.49-8.61-10.06-3.22-6.36-3.45-5.5-9.49-7.25-1.23-1.16-.39-2.7-.08-3.97-.51-4-.42-3.51,3.37-3.99,10.85-3.46,22.11-6.54,30.5-14.68,4.98-3.37,8.84-8.66,13.95-11.59,1.44-.3,1.61-.39,2.45-1.72.82-1.3,1.86-1.41,2.92-2.36,1.03-.71.23-1.86.67-2.76,2.35-1.01,3.11-3.33,3.62-5.62.96-1.33,3.45-1.87,3.1-3.87.24-.7.4-1.27-.05-1.93.12-1.68-1.78-5.14-2.31-5.2-.74-.52-4.86,1.8-6.57,3.44-1.32,1.82.72,7.62-2.44,8.27-6.16,1.25-5.33,4.41-9.37,5.64-5.09,1.54-9,5.99-9.88,6.02-5.17.12-2.83,2.69-6.79,4.08-.71.25-5.35-.01-6.52-.03-3.11-1.17-8.51,2.84-12.53,1.8-4.37-1.14-5.19.97-7.85.07-1.44-.62-2.86-1.47-4.5-1.44-2.54.15-5.25.98-7.67-.12-.6-.46-.08-1.31-.36-1.9-.17-.36-.55-.49-.68-.89.07-1.28-1.06-1.43-2.06-1.58,2.65-3.32,3.93-7.54,5.03-11.65-.55-4.84.21-13.32-6.4-13.96-4.83-3.43-9.5-.78-12.82,3.23,0-.89-.98-1.18-1.69-.72-.48-2.26-1.69-4.98-3.66-6.26-3.04-.26-4.52-1.76-7.73-.1-2.71-.17-4.96,1.17-7.54,1.83-1.22.41-2.6-.74-3.56.42-2.1,1.39-6.07,3.38-6.39,6.1,1.34,6.61,4.54,12.96,6.36,19.34.84,2.18,1.8,4.45,2.81,6.62-.53.85-1.07,1.68-1.24,2.68-2.24,1.19-3.09,3.45-2.31,5.78-.16-1.76.63-3.68,2.34-4.38,2.58,5.12-.59,6.19-1.78,10.44.93,2.32.34,3.91-1.63,5.35,1.9-.98,4.01-2.37,3.91-4.83.23.43.5.84.78,1.25-.6-1.5-.19-3.24.72-4.46,2.28,5.48.02,5.64-2.36,9.8,2.13,8.67-4.27,7.87-.49,13.33-.88-1.46.42-2.63.94-3.89.11-.4-.07-1.76.39-1.91,1.06,0,.31,1.56.4,2.21.14,2.2-1.98,3.97.43,5.69-1.28-1.56.09-3.25.94-4.59.45-1.01-.18-2.2.1-3.19.51-.7,1.07.49,1.14.93.12.7-.3,1.21-.37,1.88,1.3,2.66.42,3.42-.89,5.76,3.15-.45,1.56-3.48,2.11-5.46,1.55-1.39,1.36-3.43,1.77-5.23,1.17,1.11,1.62,3.89.22,5.05-.7,1.37,1.45,1.83.92,3.36,1.34-1.51.95-3.47.52-5.26-.23-1.16.47-1.89.72-2.98.26-1.09-.36-2.2.06-3.26.22-.56.58-.87.61-.14-.41,5.54,2.15,2.58-.28,8.62,4.15-1.77.09-6.62,1.99-9.46.35-.59.6-1.24.48-1.94.17.2.33.4.49.61-.24,1.08-.19,2.08.55,2.93.38.96-.01,2.06-.28,2.99.45-1.15,1.08-2.21,1.45-3.39,3.7,6.13,4.91,13.19,7.32,19.86,1.22,5.34,4.53,10.42,3.65,15.94,1.39,2.1,5.6-.21,7.74.7.19,1.45-.61,3.04-.71,4.5,1.67,5.85,2.22,12.14,1.39,18.21,0,9.93,3.97,19.12,2.38,29.07-.8,5.3-.07,10.52-1.9,15.55-.14,2.65,4.54,3.78,1.73,6.18-.99.98-1.13,1.06-1.22,2.57-.28,4.61-6.76,4.17-7.89,8.53-.45,1.74.46,2.43,2.06,2.71,4.25,1.24,8.21.75,12.31-.52,3.62.4,6.53-1.25,3.74-4.84-.57-1.2.14-2.1-.04-3.32-.58-1.09-1.02-2.05-.66-3.31-.54-4.41.44-3.86,2.92-6.83.44-1.09.05-1.56-.31-2.54-.7-3.74,3.69-6.16,2.79-10.22-1-3.17.77-5.56,3.74-6.6,6.17-5.24-1.92-13.41.17-19.73,3.24-3.98,1.39-16.22,4.46-16.29,3.76-.14,7.11,3.55,9.84,5.78,11.09,8.27,21.26,18.04,29.39,29.27,2.01,3.74,4.97,6.7,8.33,9.25,2.38,2.7,4.05,6.78,8.1,7.17,1.26.49,1.27,2.47,2.52,2.76,1.26-.08,1.75-1.12,2.58.49,5.98,5.16-4.13,5.66-1.86,10.55,2.64,5.84,7.64,1.96,7.72,7.77.36,2.86,3.31,3.32,5.68,3.66,2.83.26,9.48,1.48,8.24-3.41ZM136.45,17.18c-2.48,3.93-2.64,12.41-6.09,3.13-1.02-1.42-3.13-2.02-2.74-4.14.17-1.71-1.56-1.95-2.25-3.03.9-1.11,2.69-.35,3.67-1.53.54-1.6,1.38-.86,2.64-1.24,1.35-.58,1.86.89,2.51,1.76,1.05.79,1.21,4.23,2.98,3.36-.02.52-.51,1.27-.72,1.69Z"/>
    <path class="st0" d="M127.78,70.87c-.1.14-.19.28-.27.43.14-.11.22-.26.27-.43Z"/>
  </g>
</svg>