<svg width="1130" height="15" viewBox="0 0 1130 15" fill="none" xmlns="http://www.w3.org/2000/svg">
<path d="M1128.9 6.36523C1129.29 6.75577 1129.29 7.38895 1128.9 7.7793L1122.54 14.1426L1121.12 12.7285L1125.78 8.07129H1113.71L1113.71 6.07129H1125.78L1121.12 1.41504L1122.54 0L1128.9 6.36523Z" fill="white"/>
<path d="M11.3975 8.07129L0 8.07227V6.07227L11.3975 6.07129V8.07129Z" fill="white"/>
<path d="M46.375 8.07129L29.3848 8.07227V6.07227L46.375 6.07129V8.07129Z" fill="white"/>
<path d="M81.3535 8.07129L64.3623 8.07227V6.07227L81.3525 6.07129L81.3535 8.07129Z" fill="white"/>
<path d="M361.176 6.07227L361.175 8.07227L344.185 8.07129L344.186 6.07129L361.176 6.07227Z" fill="white"/>
<path d="M396.153 6.07227V8.07227L379.162 8.07129L379.163 6.07129L396.153 6.07227Z" fill="white"/>
<path d="M431.131 6.07227L431.132 8.07227L414.141 8.07129V6.07129L431.131 6.07227Z" fill="white"/>
<path d="M466.108 6.07227L466.109 8.07227L449.118 8.07129V6.07129L466.108 6.07227Z" fill="white"/>
<path d="M501.087 6.07227V8.07227L484.097 8.07129V6.07129L501.087 6.07227Z" fill="white"/>
<path d="M536.064 6.07227V8.07227L519.074 8.07129V6.07129L536.064 6.07227Z" fill="white"/>
<path d="M571.043 6.07227V8.07227L554.053 8.07129L554.052 6.07129L571.043 6.07227Z" fill="white"/>
<path d="M606.021 6.07227V8.07227L589.03 8.07129L589.029 6.07129L606.021 6.07227Z" fill="white"/>
<path d="M640.999 6.07227L640.998 8.07227L624.008 8.07129L624.009 6.07129L640.999 6.07227Z" fill="white"/>
<path d="M710.954 8.07129L693.963 8.07227L693.964 6.07129H710.954V8.07129Z" fill="white"/>
<path d="M745.933 8.07129L728.941 8.07227V6.07227L745.932 6.07129L745.933 8.07129Z" fill="white"/>
<path d="M780.91 8.07129L763.92 8.07227L763.919 6.07227L780.909 6.07129L780.91 8.07129Z" fill="white"/>
<path d="M815.888 8.07129L798.897 8.07227L798.896 6.07227L815.888 6.07129V8.07129Z" fill="white"/>
<path d="M850.865 8.07129L833.875 8.07227V6.07227L850.865 6.07129V8.07129Z" fill="white"/>
<path d="M885.843 8.07129L868.853 8.07227V6.07227L885.844 6.07129L885.843 8.07129Z" fill="white"/>
<path d="M920.821 8.07129L903.831 8.07227V6.07227L920.821 6.07129V8.07129Z" fill="white"/>
<path d="M955.799 8.07129L938.809 8.07227V6.07227L955.799 6.07129V8.07129Z" fill="white"/>
<path d="M990.776 8.07129L973.786 8.07227V6.07227L990.777 6.07129L990.776 8.07129Z" fill="white"/>
<path d="M116.331 8.07129H99.3398L99.3408 6.07227L116.331 6.07129V8.07129Z" fill="white"/>
<path d="M151.309 8.07129H134.318V6.07129H151.309V8.07129Z" fill="white"/>
<path d="M186.286 8.07129H169.296V6.07129H186.286V8.07129Z" fill="white"/>
<path d="M221.265 8.07129H204.274L204.273 6.07129H221.264L221.265 8.07129Z" fill="white"/>
<path d="M256.242 8.07129H239.252L239.251 6.07129H256.241L256.242 8.07129Z" fill="white"/>
<path d="M291.22 8.07129H274.229L274.229 6.07129H291.22V8.07129Z" fill="white"/>
<path d="M326.197 8.07129H309.207V6.07129H326.198L326.197 8.07129Z" fill="white"/>
<path d="M675.976 8.07129H658.985L658.986 6.07129H675.977L675.976 8.07129Z" fill="white"/>
<path d="M1025.76 8.07129H1008.76L1008.76 6.07129H1025.75L1025.76 8.07129Z" fill="white"/>
<path d="M1060.73 8.07129H1043.74L1043.74 6.07129H1060.73L1060.73 8.07129Z" fill="white"/>
<path d="M1095.71 8.07129H1078.72V6.07129H1095.71V8.07129Z" fill="white"/>
</svg>
